<mxfile host="app.diagrams.net" modified="2022-11-10T11:15:20.625Z" agent="5.0 (Macintosh; Intel Mac OS X 10_15_7) AppleWebKit/537.36 (KHTML, like Gecko) Chrome/107.0.0.0 Safari/537.36" etag="cG5J5f0RK6JRh-Ghb59T" version="20.5.3" type="github">
  <diagram name="Page-1" id="97916047-d0de-89f5-080d-49f4d83e522f">
    <mxGraphModel dx="8347" dy="1273" grid="1" gridSize="10" guides="1" tooltips="1" connect="1" arrows="1" fold="1" page="1" pageScale="1.5" pageWidth="1169" pageHeight="827" background="none" math="0" shadow="0">
      <root>
        <mxCell id="0" />
        <mxCell id="1" parent="0" />
        <mxCell id="eFe6NXDTMwuamUTCRNsm-122" value="" style="elbow=vertical;strokeWidth=1;endArrow=none;endFill=0;fontStyle=1;dashed=1;entryX=0.966;entryY=0.5;entryDx=0;entryDy=0;exitX=0;exitY=0.5;exitDx=0;exitDy=0;entryPerimeter=0;" parent="1" source="eFe6NXDTMwuamUTCRNsm-106" target="eFe6NXDTMwuamUTCRNsm-108" edge="1">
          <mxGeometry x="-2792.5" y="344.91" width="100" height="100" as="geometry">
            <mxPoint x="-3184.5" y="399.9999999999998" as="sourcePoint" />
            <mxPoint x="-2939.5" y="399.9999999999998" as="targetPoint" />
          </mxGeometry>
        </mxCell>
        <mxCell id="eFe6NXDTMwuamUTCRNsm-123" value="Text" style="edgeLabel;html=1;align=center;verticalAlign=middle;resizable=0;points=[];" parent="eFe6NXDTMwuamUTCRNsm-122" vertex="1" connectable="0">
          <mxGeometry relative="1" as="geometry">
            <mxPoint x="-593" y="-40" as="offset" />
          </mxGeometry>
        </mxCell>
        <mxCell id="XjYkyjgMCkCa7mMpTtTm-49" value="" style="edgeStyle=orthogonalEdgeStyle;rounded=0;orthogonalLoop=1;jettySize=auto;html=1;" parent="1" source="2" target="3" edge="1">
          <mxGeometry relative="1" as="geometry" />
        </mxCell>
        <mxCell id="2" value="Mobile APP" style="rounded=1;fillColor=#fff2cc;strokeColor=#d6b656;shadow=1;fontStyle=1;fontSize=14;" parent="1" vertex="1">
          <mxGeometry x="-3400" y="20" width="140" height="40" as="geometry" />
        </mxCell>
        <mxCell id="XjYkyjgMCkCa7mMpTtTm-50" value="" style="edgeStyle=orthogonalEdgeStyle;rounded=0;orthogonalLoop=1;jettySize=auto;html=1;" parent="1" source="3" target="4" edge="1">
          <mxGeometry relative="1" as="geometry" />
        </mxCell>
        <mxCell id="3" value="로그인" style="rounded=1;shadow=1;fontStyle=1;fontSize=14;fillColor=#ffe6cc;strokeColor=#d79b00;" parent="1" vertex="1">
          <mxGeometry x="-3405" y="95" width="150" height="30" as="geometry" />
        </mxCell>
        <mxCell id="XjYkyjgMCkCa7mMpTtTm-51" value="" style="edgeStyle=orthogonalEdgeStyle;rounded=0;orthogonalLoop=1;jettySize=auto;html=1;" parent="1" source="4" target="eFe6NXDTMwuamUTCRNsm-63" edge="1">
          <mxGeometry relative="1" as="geometry" />
        </mxCell>
        <mxCell id="4" value="Main" style="rounded=1;fillColor=#fff2cc;strokeColor=#d6b656;shadow=1;fontStyle=1;fontSize=14;" parent="1" vertex="1">
          <mxGeometry x="-3402" y="375" width="145" height="30" as="geometry" />
        </mxCell>
        <mxCell id="33" value="" style="elbow=vertical;strokeWidth=1;endArrow=none;endFill=0;fontStyle=1;dashed=1;entryX=0;entryY=0.5;entryDx=0;entryDy=0;exitX=1;exitY=0.5;exitDx=0;exitDy=0;" parent="1" source="3" target="7" edge="1">
          <mxGeometry x="-3468" y="100.5" width="100" height="100" as="geometry">
            <mxPoint x="-3180" y="165" as="sourcePoint" />
            <mxPoint x="-3368" y="100.5" as="targetPoint" />
          </mxGeometry>
        </mxCell>
        <mxCell id="eFe6NXDTMwuamUTCRNsm-56" value="Text" style="edgeLabel;html=1;align=center;verticalAlign=middle;resizable=0;points=[];" parent="33" vertex="1" connectable="0">
          <mxGeometry relative="1" as="geometry">
            <mxPoint x="-593" y="-40" as="offset" />
          </mxGeometry>
        </mxCell>
        <mxCell id="eFe6NXDTMwuamUTCRNsm-90" value="" style="edgeStyle=none;rounded=0;orthogonalLoop=1;jettySize=auto;html=1;dashed=1;strokeWidth=1;endArrow=none;endFill=0;" parent="1" source="7" target="eFe6NXDTMwuamUTCRNsm-88" edge="1">
          <mxGeometry relative="1" as="geometry" />
        </mxCell>
        <mxCell id="7" value="회원가입" style="rounded=1;shadow=1;fontStyle=1;fontSize=14;fillColor=#ffe6cc;strokeColor=#d79b00;" parent="1" vertex="1">
          <mxGeometry x="-3170" y="90" width="120" height="40" as="geometry" />
        </mxCell>
        <mxCell id="XjYkyjgMCkCa7mMpTtTm-52" value="" style="edgeStyle=orthogonalEdgeStyle;rounded=0;orthogonalLoop=1;jettySize=auto;html=1;" parent="1" source="eFe6NXDTMwuamUTCRNsm-63" target="eFe6NXDTMwuamUTCRNsm-124" edge="1">
          <mxGeometry relative="1" as="geometry" />
        </mxCell>
        <mxCell id="eFe6NXDTMwuamUTCRNsm-63" value="시작하기(튜토리얼)" style="rounded=1;shadow=1;fontStyle=1;fontSize=14;fillColor=#dae8fc;strokeColor=#6c8ebf;" parent="1" vertex="1">
          <mxGeometry x="-3405.5" y="440" width="150" height="30" as="geometry" />
        </mxCell>
        <mxCell id="eFe6NXDTMwuamUTCRNsm-64" value="" style="elbow=vertical;strokeWidth=1;endArrow=classic;endFill=0;fontStyle=1;dashed=1;entryX=0;entryY=0.5;entryDx=0;entryDy=0;exitX=1;exitY=0.5;exitDx=0;exitDy=0;" parent="1" source="eFe6NXDTMwuamUTCRNsm-63" target="eFe6NXDTMwuamUTCRNsm-66" edge="1">
          <mxGeometry x="-3455.5" y="325.5" width="100" height="100" as="geometry">
            <mxPoint x="-3242.5" y="335" as="sourcePoint" />
            <mxPoint x="-3355.5" y="325.5" as="targetPoint" />
          </mxGeometry>
        </mxCell>
        <mxCell id="XjYkyjgMCkCa7mMpTtTm-45" value="" style="edgeStyle=orthogonalEdgeStyle;rounded=0;orthogonalLoop=1;jettySize=auto;html=1;startArrow=none;" parent="1" source="eFe6NXDTMwuamUTCRNsm-67" target="eFe6NXDTMwuamUTCRNsm-114" edge="1">
          <mxGeometry relative="1" as="geometry" />
        </mxCell>
        <mxCell id="eFe6NXDTMwuamUTCRNsm-66" value="start( 설명 팝업창)" style="rounded=1;shadow=1;fontStyle=1;fontSize=14;fillColor=#d0cee2;strokeColor=#56517e;" parent="1" vertex="1">
          <mxGeometry x="-3080" y="435" width="120" height="40" as="geometry" />
        </mxCell>
        <mxCell id="XjYkyjgMCkCa7mMpTtTm-44" value="" style="edgeStyle=orthogonalEdgeStyle;rounded=0;orthogonalLoop=1;jettySize=auto;html=1;" parent="1" source="eFe6NXDTMwuamUTCRNsm-67" target="eFe6NXDTMwuamUTCRNsm-114" edge="1">
          <mxGeometry relative="1" as="geometry" />
        </mxCell>
        <mxCell id="XjYkyjgMCkCa7mMpTtTm-40" value="" style="edgeStyle=orthogonalEdgeStyle;rounded=0;orthogonalLoop=1;jettySize=auto;html=1;" parent="1" source="eFe6NXDTMwuamUTCRNsm-68" target="eFe6NXDTMwuamUTCRNsm-69" edge="1">
          <mxGeometry relative="1" as="geometry" />
        </mxCell>
        <mxCell id="eFe6NXDTMwuamUTCRNsm-68" value="거래 방법" style="rounded=1;shadow=1;fontStyle=1;fontSize=14;" parent="1" vertex="1">
          <mxGeometry x="-3080" y="630" width="120" height="40" as="geometry" />
        </mxCell>
        <mxCell id="eFe6NXDTMwuamUTCRNsm-69" value="커뮤니티" style="rounded=1;shadow=1;fontStyle=1;fontSize=14;" parent="1" vertex="1">
          <mxGeometry x="-3080" y="690" width="120" height="40" as="geometry" />
        </mxCell>
        <mxCell id="eFe6NXDTMwuamUTCRNsm-75" value="이메일" style="rounded=1;shadow=1;fontStyle=1;fontSize=14;" parent="1" vertex="1">
          <mxGeometry x="-3170" y="200" width="120" height="40" as="geometry" />
        </mxCell>
        <mxCell id="eFe6NXDTMwuamUTCRNsm-76" value="휴대폰 번호" style="rounded=1;shadow=1;fontStyle=1;fontSize=14;" parent="1" vertex="1">
          <mxGeometry x="-3310" y="200" width="120" height="40" as="geometry" />
        </mxCell>
        <mxCell id="eFe6NXDTMwuamUTCRNsm-77" value="" style="edgeStyle=none;rounded=0;orthogonalLoop=1;jettySize=auto;html=1;dashed=1;strokeWidth=1;endArrow=none;endFill=0;entryX=1;entryY=0.5;entryDx=0;entryDy=0;" parent="1" source="eFe6NXDTMwuamUTCRNsm-78" target="eFe6NXDTMwuamUTCRNsm-75" edge="1">
          <mxGeometry relative="1" as="geometry" />
        </mxCell>
        <mxCell id="eFe6NXDTMwuamUTCRNsm-78" value="소셜미디어&#xa;(네이버, 카톡, 구글)" style="rounded=1;shadow=1;fontStyle=1;fontSize=14;" parent="1" vertex="1">
          <mxGeometry x="-3030" y="200" width="120" height="40" as="geometry" />
        </mxCell>
        <mxCell id="eFe6NXDTMwuamUTCRNsm-80" value="" style="edgeStyle=none;rounded=0;orthogonalLoop=1;jettySize=auto;html=1;dashed=1;strokeWidth=1;endArrow=none;endFill=0;entryX=0;entryY=0.5;entryDx=0;entryDy=0;exitX=1;exitY=0.5;exitDx=0;exitDy=0;" parent="1" source="eFe6NXDTMwuamUTCRNsm-76" target="eFe6NXDTMwuamUTCRNsm-75" edge="1">
          <mxGeometry relative="1" as="geometry">
            <mxPoint x="-3330.55" y="204.01" as="sourcePoint" />
            <mxPoint x="-3330" y="170" as="targetPoint" />
            <Array as="points" />
          </mxGeometry>
        </mxCell>
        <mxCell id="eFe6NXDTMwuamUTCRNsm-83" value="" style="edgeStyle=none;rounded=0;orthogonalLoop=1;jettySize=auto;html=1;dashed=1;strokeWidth=1;endArrow=none;endFill=0;exitX=0.5;exitY=0;exitDx=0;exitDy=0;" parent="1" source="eFe6NXDTMwuamUTCRNsm-75" edge="1">
          <mxGeometry relative="1" as="geometry">
            <mxPoint x="-3110" y="145" as="sourcePoint" />
            <mxPoint x="-3110" y="165" as="targetPoint" />
            <Array as="points" />
          </mxGeometry>
        </mxCell>
        <mxCell id="eFe6NXDTMwuamUTCRNsm-84" value="" style="elbow=vertical;strokeWidth=1;endArrow=none;endFill=0;fontStyle=1;dashed=1;entryX=0;entryY=0.5;entryDx=0;entryDy=0;exitX=1;exitY=0.5;exitDx=0;exitDy=0;" parent="1" target="eFe6NXDTMwuamUTCRNsm-86" edge="1">
          <mxGeometry x="-3263" y="100.5" width="100" height="100" as="geometry">
            <mxPoint x="-3050" y="110" as="sourcePoint" />
            <mxPoint x="-3163" y="100.5" as="targetPoint" />
          </mxGeometry>
        </mxCell>
        <mxCell id="eFe6NXDTMwuamUTCRNsm-85" value="첫 1회" style="edgeLabel;html=1;align=center;verticalAlign=middle;resizable=0;points=[];fontSize=22;" parent="eFe6NXDTMwuamUTCRNsm-84" vertex="1" connectable="0">
          <mxGeometry relative="1" as="geometry">
            <mxPoint x="-486" y="345" as="offset" />
          </mxGeometry>
        </mxCell>
        <mxCell id="eFe6NXDTMwuamUTCRNsm-86" value="비밀번호찾기" style="rounded=1;shadow=1;fontStyle=1;fontSize=14;fillColor=#ffe6cc;strokeColor=#d79b00;" parent="1" vertex="1">
          <mxGeometry x="-2860" y="90" width="120" height="40" as="geometry" />
        </mxCell>
        <mxCell id="eFe6NXDTMwuamUTCRNsm-88" value="이용약관 &#xa;개인정보 취급방침" style="rounded=1;shadow=1;fontStyle=1;fontSize=14;" parent="1" vertex="1">
          <mxGeometry x="-3170" y="145" width="120" height="40" as="geometry" />
        </mxCell>
        <mxCell id="eFe6NXDTMwuamUTCRNsm-89" value="" style="edgeStyle=none;rounded=0;orthogonalLoop=1;jettySize=auto;html=1;dashed=1;strokeWidth=1;endArrow=none;endFill=0;exitX=0.5;exitY=0;exitDx=0;exitDy=0;" parent="1" source="eFe6NXDTMwuamUTCRNsm-88" edge="1">
          <mxGeometry relative="1" as="geometry">
            <mxPoint x="-3110" y="130" as="sourcePoint" />
            <mxPoint x="-3110" y="135" as="targetPoint" />
            <Array as="points" />
          </mxGeometry>
        </mxCell>
        <mxCell id="eFe6NXDTMwuamUTCRNsm-93" value="이메일" style="rounded=1;shadow=1;fontStyle=1;fontSize=14;" parent="1" vertex="1">
          <mxGeometry x="-2860" y="145" width="120" height="40" as="geometry" />
        </mxCell>
        <mxCell id="eFe6NXDTMwuamUTCRNsm-94" value="휴대폰 번호" style="rounded=1;shadow=1;fontStyle=1;fontSize=14;" parent="1" vertex="1">
          <mxGeometry x="-2728.25" y="145" width="120" height="40" as="geometry" />
        </mxCell>
        <mxCell id="eFe6NXDTMwuamUTCRNsm-96" value="" style="edgeStyle=none;rounded=0;orthogonalLoop=1;jettySize=auto;html=1;dashed=1;strokeWidth=1;endArrow=none;endFill=0;exitX=0.5;exitY=0;exitDx=0;exitDy=0;entryX=0.5;entryY=1;entryDx=0;entryDy=0;" parent="1" source="eFe6NXDTMwuamUTCRNsm-93" target="eFe6NXDTMwuamUTCRNsm-86" edge="1">
          <mxGeometry relative="1" as="geometry">
            <mxPoint x="-2995" y="210" as="sourcePoint" />
            <mxPoint x="-2995" y="175" as="targetPoint" />
            <Array as="points" />
          </mxGeometry>
        </mxCell>
        <mxCell id="eFe6NXDTMwuamUTCRNsm-97" value="인증코드 입력" style="rounded=1;shadow=1;fontStyle=1;fontSize=14;" parent="1" vertex="1">
          <mxGeometry x="-3170" y="255" width="120" height="40" as="geometry" />
        </mxCell>
        <mxCell id="eFe6NXDTMwuamUTCRNsm-100" value="회원정보 입력" style="rounded=1;shadow=1;fontStyle=1;fontSize=14;" parent="1" vertex="1">
          <mxGeometry x="-3170" y="310" width="120" height="40" as="geometry" />
        </mxCell>
        <mxCell id="eFe6NXDTMwuamUTCRNsm-101" value="" style="edgeStyle=none;rounded=0;orthogonalLoop=1;jettySize=auto;html=1;dashed=1;strokeWidth=1;endArrow=none;endFill=0;entryX=0.5;entryY=1;entryDx=0;entryDy=0;exitX=0.5;exitY=0;exitDx=0;exitDy=0;" parent="1" source="eFe6NXDTMwuamUTCRNsm-100" edge="1">
          <mxGeometry relative="1" as="geometry">
            <mxPoint x="-3330.55" y="259.01" as="sourcePoint" />
            <mxPoint x="-3110" y="295" as="targetPoint" />
            <Array as="points" />
          </mxGeometry>
        </mxCell>
        <mxCell id="eFe6NXDTMwuamUTCRNsm-103" value="" style="edgeStyle=none;rounded=0;orthogonalLoop=1;jettySize=auto;html=1;dashed=1;strokeWidth=1;endArrow=none;endFill=0;exitX=0.5;exitY=0;exitDx=0;exitDy=0;entryX=0.5;entryY=1;entryDx=0;entryDy=0;" parent="1" source="eFe6NXDTMwuamUTCRNsm-97" target="eFe6NXDTMwuamUTCRNsm-75" edge="1">
          <mxGeometry relative="1" as="geometry">
            <mxPoint x="-3030" y="295" as="sourcePoint" />
            <mxPoint x="-2950" y="295" as="targetPoint" />
            <Array as="points" />
          </mxGeometry>
        </mxCell>
        <mxCell id="eFe6NXDTMwuamUTCRNsm-104" value="" style="edgeStyle=none;rounded=0;orthogonalLoop=1;jettySize=auto;html=1;dashed=1;strokeWidth=1;endArrow=none;endFill=0;exitX=1;exitY=0.5;exitDx=0;exitDy=0;entryX=0;entryY=0.5;entryDx=0;entryDy=0;" parent="1" source="eFe6NXDTMwuamUTCRNsm-93" target="eFe6NXDTMwuamUTCRNsm-94" edge="1">
          <mxGeometry relative="1" as="geometry">
            <mxPoint x="-2789.9999999999995" y="155" as="sourcePoint" />
            <mxPoint x="-2789.9999999999995" y="140" as="targetPoint" />
            <Array as="points" />
          </mxGeometry>
        </mxCell>
        <mxCell id="eFe6NXDTMwuamUTCRNsm-105" value="거래(market)" style="rounded=1;fillColor=#fff2cc;strokeColor=#d6b656;shadow=1;fontStyle=1;fontSize=14;" parent="1" vertex="1">
          <mxGeometry x="-4166.5" y="375" width="145" height="30" as="geometry" />
        </mxCell>
        <mxCell id="XjYkyjgMCkCa7mMpTtTm-55" value="" style="edgeStyle=orthogonalEdgeStyle;rounded=0;orthogonalLoop=1;jettySize=auto;html=1;entryX=0.5;entryY=0;entryDx=0;entryDy=0;" parent="1" source="eFe6NXDTMwuamUTCRNsm-106" target="eFe6NXDTMwuamUTCRNsm-133" edge="1">
          <mxGeometry relative="1" as="geometry" />
        </mxCell>
        <mxCell id="eFe6NXDTMwuamUTCRNsm-106" value="마이페이지" style="rounded=1;fillColor=#fff2cc;strokeColor=#d6b656;shadow=1;fontStyle=1;fontSize=14;" parent="1" vertex="1">
          <mxGeometry x="-2312" y="375" width="145" height="30" as="geometry" />
        </mxCell>
        <mxCell id="XjYkyjgMCkCa7mMpTtTm-47" value="" style="edgeStyle=orthogonalEdgeStyle;rounded=0;orthogonalLoop=1;jettySize=auto;html=1;" parent="1" source="eFe6NXDTMwuamUTCRNsm-107" target="eFe6NXDTMwuamUTCRNsm-157" edge="1">
          <mxGeometry relative="1" as="geometry" />
        </mxCell>
        <mxCell id="eFe6NXDTMwuamUTCRNsm-107" value="사양분석" style="rounded=1;fillColor=#fff2cc;strokeColor=#d6b656;shadow=1;fontStyle=1;fontSize=14;" parent="1" vertex="1">
          <mxGeometry x="-4896.5" y="375" width="145" height="30" as="geometry" />
        </mxCell>
        <mxCell id="eFe6NXDTMwuamUTCRNsm-108" value="커뮤니티" style="rounded=1;fillColor=#fff2cc;strokeColor=#d6b656;shadow=1;fontStyle=1;fontSize=14;" parent="1" vertex="1">
          <mxGeometry x="-2909.5" y="375" width="145" height="30" as="geometry" />
        </mxCell>
        <mxCell id="XjYkyjgMCkCa7mMpTtTm-43" value="" style="edgeStyle=orthogonalEdgeStyle;rounded=0;orthogonalLoop=1;jettySize=auto;html=1;entryX=0.5;entryY=0.125;entryDx=0;entryDy=0;entryPerimeter=0;" parent="1" source="eFe6NXDTMwuamUTCRNsm-114" target="eFe6NXDTMwuamUTCRNsm-68" edge="1">
          <mxGeometry relative="1" as="geometry">
            <mxPoint x="-3020" y="620" as="targetPoint" />
          </mxGeometry>
        </mxCell>
        <mxCell id="eFe6NXDTMwuamUTCRNsm-114" value="사양 분석 방법" style="rounded=1;shadow=1;fontStyle=1;fontSize=14;" parent="1" vertex="1">
          <mxGeometry x="-3080" y="565" width="120" height="40" as="geometry" />
        </mxCell>
        <mxCell id="eFe6NXDTMwuamUTCRNsm-116" value="" style="elbow=vertical;strokeWidth=1;endArrow=none;endFill=0;fontStyle=1;dashed=1;" parent="1" source="eFe6NXDTMwuamUTCRNsm-107" target="eFe6NXDTMwuamUTCRNsm-105" edge="1">
          <mxGeometry x="-3942" y="335.5" width="100" height="100" as="geometry">
            <mxPoint x="-4326.5" y="390" as="sourcePoint" />
            <mxPoint x="-4186.5" y="389.9999999999998" as="targetPoint" />
          </mxGeometry>
        </mxCell>
        <mxCell id="eFe6NXDTMwuamUTCRNsm-117" value="Text" style="edgeLabel;html=1;align=center;verticalAlign=middle;resizable=0;points=[];" parent="eFe6NXDTMwuamUTCRNsm-116" vertex="1" connectable="0">
          <mxGeometry relative="1" as="geometry">
            <mxPoint x="-593" y="-40" as="offset" />
          </mxGeometry>
        </mxCell>
        <mxCell id="eFe6NXDTMwuamUTCRNsm-118" value="" style="elbow=vertical;strokeWidth=1;endArrow=none;endFill=0;fontStyle=1;dashed=1;exitX=1;exitY=0.5;exitDx=0;exitDy=0;entryX=0;entryY=0.5;entryDx=0;entryDy=0;" parent="1" source="eFe6NXDTMwuamUTCRNsm-105" target="4" edge="1">
          <mxGeometry x="-3160.5" y="334.91" width="100" height="100" as="geometry">
            <mxPoint x="-3545" y="389.4099999999998" as="sourcePoint" />
            <mxPoint x="-3390" y="380" as="targetPoint" />
            <Array as="points" />
          </mxGeometry>
        </mxCell>
        <mxCell id="eFe6NXDTMwuamUTCRNsm-120" value="" style="elbow=vertical;strokeWidth=1;endArrow=none;endFill=0;fontStyle=1;dashed=1;entryX=0;entryY=0.5;entryDx=0;entryDy=0;" parent="1" source="4" target="eFe6NXDTMwuamUTCRNsm-108" edge="1">
          <mxGeometry x="-2863" y="334.91" width="100" height="100" as="geometry">
            <mxPoint x="-3250" y="390" as="sourcePoint" />
            <mxPoint x="-3107.5" y="389.40999999999985" as="targetPoint" />
          </mxGeometry>
        </mxCell>
        <mxCell id="rimcrX7OqDLzWgMT_Scs-69" value="" style="edgeStyle=orthogonalEdgeStyle;rounded=0;orthogonalLoop=1;jettySize=auto;html=1;endArrow=none;endFill=0;" parent="1" source="eFe6NXDTMwuamUTCRNsm-124" target="rimcrX7OqDLzWgMT_Scs-68" edge="1">
          <mxGeometry relative="1" as="geometry" />
        </mxCell>
        <mxCell id="XjYkyjgMCkCa7mMpTtTm-53" value="" style="edgeStyle=orthogonalEdgeStyle;rounded=0;orthogonalLoop=1;jettySize=auto;html=1;" parent="1" source="eFe6NXDTMwuamUTCRNsm-124" target="eFe6NXDTMwuamUTCRNsm-131" edge="1">
          <mxGeometry relative="1" as="geometry" />
        </mxCell>
        <mxCell id="eFe6NXDTMwuamUTCRNsm-124" value="선호 사양 설문" style="rounded=1;shadow=1;fontStyle=1;fontSize=14;fillColor=#d0cee2;strokeColor=#56517e;" parent="1" vertex="1">
          <mxGeometry x="-3390" y="565" width="120" height="40" as="geometry" />
        </mxCell>
        <mxCell id="eFe6NXDTMwuamUTCRNsm-125" value="" style="edgeStyle=none;rounded=0;orthogonalLoop=1;jettySize=auto;html=1;dashed=1;strokeWidth=1;endArrow=none;endFill=0;exitX=0;exitY=0.5;exitDx=0;exitDy=0;" parent="1" source="eFe6NXDTMwuamUTCRNsm-126" target="eFe6NXDTMwuamUTCRNsm-131" edge="1">
          <mxGeometry relative="1" as="geometry">
            <mxPoint x="-3328" y="669.9999999999998" as="targetPoint" />
          </mxGeometry>
        </mxCell>
        <mxCell id="eFe6NXDTMwuamUTCRNsm-126" value="구매" style="rounded=1;shadow=1;fontStyle=1;fontSize=14;" parent="1" vertex="1">
          <mxGeometry x="-3248" y="630" width="120" height="40" as="geometry" />
        </mxCell>
        <mxCell id="URNRII1w7KCXuAZZDhyS-84" value="" style="edgeStyle=orthogonalEdgeStyle;rounded=0;orthogonalLoop=1;jettySize=auto;html=1;dashed=1;endArrow=none;endFill=0;" parent="1" source="eFe6NXDTMwuamUTCRNsm-127" target="URNRII1w7KCXuAZZDhyS-83" edge="1">
          <mxGeometry relative="1" as="geometry" />
        </mxCell>
        <mxCell id="eFe6NXDTMwuamUTCRNsm-127" value="판매" style="rounded=1;shadow=1;fontStyle=1;fontSize=14;" parent="1" vertex="1">
          <mxGeometry x="-3530.5" y="630" width="120" height="40" as="geometry" />
        </mxCell>
        <mxCell id="eFe6NXDTMwuamUTCRNsm-131" value="시세조회" style="rounded=1;shadow=1;fontStyle=1;fontSize=14;" parent="1" vertex="1">
          <mxGeometry x="-3390" y="630" width="120" height="40" as="geometry" />
        </mxCell>
        <mxCell id="eFe6NXDTMwuamUTCRNsm-132" value="" style="edgeStyle=none;rounded=0;orthogonalLoop=1;jettySize=auto;html=1;dashed=1;strokeWidth=1;endArrow=none;endFill=0;entryX=0.5;entryY=1;entryDx=0;entryDy=0;exitX=0.5;exitY=0;exitDx=0;exitDy=0;" parent="1" source="eFe6NXDTMwuamUTCRNsm-131" edge="1">
          <mxGeometry relative="1" as="geometry">
            <mxPoint x="-3548.55" y="579.01" as="sourcePoint" />
            <mxPoint x="-3328" y="604.9999999999998" as="targetPoint" />
            <Array as="points" />
          </mxGeometry>
        </mxCell>
        <mxCell id="XjYkyjgMCkCa7mMpTtTm-56" value="" style="edgeStyle=orthogonalEdgeStyle;rounded=0;orthogonalLoop=1;jettySize=auto;html=1;" parent="1" source="eFe6NXDTMwuamUTCRNsm-133" target="eFe6NXDTMwuamUTCRNsm-221" edge="1">
          <mxGeometry relative="1" as="geometry" />
        </mxCell>
        <mxCell id="eFe6NXDTMwuamUTCRNsm-133" value="선호 사양 설문" style="rounded=1;shadow=1;fontStyle=1;fontSize=14;fillColor=#d0cee2;strokeColor=#56517e;" parent="1" vertex="1">
          <mxGeometry x="-2299.5" y="428" width="120" height="40" as="geometry" />
        </mxCell>
        <mxCell id="eFe6NXDTMwuamUTCRNsm-134" value="" style="edgeStyle=none;rounded=0;orthogonalLoop=1;jettySize=auto;html=1;dashed=1;strokeWidth=1;endArrow=none;endFill=0;entryX=1;entryY=0.5;entryDx=0;entryDy=0;" parent="1" source="eFe6NXDTMwuamUTCRNsm-135" target="eFe6NXDTMwuamUTCRNsm-140" edge="1">
          <mxGeometry relative="1" as="geometry">
            <mxPoint x="-2322" y="534.9999999999998" as="targetPoint" />
          </mxGeometry>
        </mxCell>
        <mxCell id="XjYkyjgMCkCa7mMpTtTm-63" value="" style="edgeStyle=orthogonalEdgeStyle;rounded=0;orthogonalLoop=1;jettySize=auto;html=1;" parent="1" source="eFe6NXDTMwuamUTCRNsm-135" target="eFe6NXDTMwuamUTCRNsm-142" edge="1">
          <mxGeometry relative="1" as="geometry" />
        </mxCell>
        <mxCell id="eFe6NXDTMwuamUTCRNsm-135" value="거래 이력" style="rounded=1;shadow=1;fontStyle=1;fontSize=14;fillColor=#d5e8d4;strokeColor=#82b366;" parent="1" vertex="1">
          <mxGeometry x="-1854.5" y="495" width="120" height="40" as="geometry" />
        </mxCell>
        <mxCell id="r77UMJ5Ng2X09h00kHRx-50" style="edgeStyle=orthogonalEdgeStyle;rounded=0;orthogonalLoop=1;jettySize=auto;html=1;exitX=0.5;exitY=1;exitDx=0;exitDy=0;entryX=0.5;entryY=0;entryDx=0;entryDy=0;endArrow=classicThin;endFill=1;" parent="1" source="eFe6NXDTMwuamUTCRNsm-136" target="URNRII1w7KCXuAZZDhyS-33" edge="1">
          <mxGeometry relative="1" as="geometry" />
        </mxCell>
        <mxCell id="r77UMJ5Ng2X09h00kHRx-53" value="" style="edgeStyle=orthogonalEdgeStyle;rounded=0;orthogonalLoop=1;jettySize=auto;html=1;endArrow=none;endFill=0;dashed=1;" parent="1" source="eFe6NXDTMwuamUTCRNsm-136" target="URNRII1w7KCXuAZZDhyS-42" edge="1">
          <mxGeometry relative="1" as="geometry" />
        </mxCell>
        <mxCell id="eFe6NXDTMwuamUTCRNsm-136" value="회원정보" style="rounded=1;shadow=1;fontStyle=1;fontSize=14;fillColor=#d5e8d4;strokeColor=#82b366;" parent="1" vertex="1">
          <mxGeometry x="-1880" y="180" width="120" height="40" as="geometry" />
        </mxCell>
        <mxCell id="XjYkyjgMCkCa7mMpTtTm-57" value="" style="edgeStyle=orthogonalEdgeStyle;rounded=0;orthogonalLoop=1;jettySize=auto;html=1;" parent="1" source="eFe6NXDTMwuamUTCRNsm-140" target="eFe6NXDTMwuamUTCRNsm-217" edge="1">
          <mxGeometry relative="1" as="geometry" />
        </mxCell>
        <mxCell id="eFe6NXDTMwuamUTCRNsm-140" value="찜(장바구니)" style="rounded=1;shadow=1;fontStyle=1;fontSize=14;fillColor=#d5e8d4;strokeColor=#82b366;" parent="1" vertex="1">
          <mxGeometry x="-2150" y="495" width="120" height="40" as="geometry" />
        </mxCell>
        <mxCell id="XjYkyjgMCkCa7mMpTtTm-59" value="" style="edgeStyle=orthogonalEdgeStyle;rounded=0;orthogonalLoop=1;jettySize=auto;html=1;" parent="1" source="eFe6NXDTMwuamUTCRNsm-142" target="rimcrX7OqDLzWgMT_Scs-76" edge="1">
          <mxGeometry relative="1" as="geometry" />
        </mxCell>
        <mxCell id="eFe6NXDTMwuamUTCRNsm-142" value="판매내역" style="rounded=1;shadow=1;fontStyle=1;fontSize=14;" parent="1" vertex="1">
          <mxGeometry x="-1854.5" y="565" width="120" height="40" as="geometry" />
        </mxCell>
        <mxCell id="XjYkyjgMCkCa7mMpTtTm-60" value="" style="edgeStyle=orthogonalEdgeStyle;rounded=0;orthogonalLoop=1;jettySize=auto;html=1;" parent="1" source="eFe6NXDTMwuamUTCRNsm-145" target="rimcrX7OqDLzWgMT_Scs-70" edge="1">
          <mxGeometry relative="1" as="geometry" />
        </mxCell>
        <mxCell id="eFe6NXDTMwuamUTCRNsm-145" value="구매내역" style="rounded=1;shadow=1;fontStyle=1;fontSize=14;" parent="1" vertex="1">
          <mxGeometry x="-1714.5" y="565" width="120" height="40" as="geometry" />
        </mxCell>
        <mxCell id="eFe6NXDTMwuamUTCRNsm-146" value="" style="elbow=vertical;strokeWidth=1;endArrow=none;endFill=0;fontStyle=1;dashed=1;entryX=0;entryY=0.5;entryDx=0;entryDy=0;exitX=1;exitY=0.5;exitDx=0;exitDy=0;" parent="1" edge="1">
          <mxGeometry x="-2460" y="119.5" width="100" height="100" as="geometry">
            <mxPoint x="-1734.5" y="583.9999999999998" as="sourcePoint" />
            <mxPoint x="-1714.5" y="584" as="targetPoint" />
          </mxGeometry>
        </mxCell>
        <mxCell id="eFe6NXDTMwuamUTCRNsm-148" value="판매글게시 내역" style="rounded=1;shadow=1;fontStyle=1;fontSize=14;" parent="1" vertex="1">
          <mxGeometry x="-2016" y="645" width="120" height="40" as="geometry" />
        </mxCell>
        <mxCell id="rimcrX7OqDLzWgMT_Scs-63" value="" style="edgeStyle=orthogonalEdgeStyle;rounded=0;orthogonalLoop=1;jettySize=auto;html=1;endArrow=block;endFill=1;" parent="1" source="eFe6NXDTMwuamUTCRNsm-155" target="rimcrX7OqDLzWgMT_Scs-62" edge="1">
          <mxGeometry relative="1" as="geometry" />
        </mxCell>
        <mxCell id="eFe6NXDTMwuamUTCRNsm-155" value="내 컴퓨터 사양정보" style="rounded=1;shadow=1;fontStyle=1;fontSize=14;fillColor=#d5e8d4;strokeColor=#82b366;" parent="1" vertex="1">
          <mxGeometry x="-1577.5" y="495" width="120" height="40" as="geometry" />
        </mxCell>
        <mxCell id="eFe6NXDTMwuamUTCRNsm-156" value="" style="edgeStyle=none;rounded=0;orthogonalLoop=1;jettySize=auto;html=1;dashed=1;strokeWidth=1;endArrow=none;endFill=0;exitX=0;exitY=0.5;exitDx=0;exitDy=0;entryX=1;entryY=0.5;entryDx=0;entryDy=0;" parent="1" source="eFe6NXDTMwuamUTCRNsm-155" target="eFe6NXDTMwuamUTCRNsm-135" edge="1">
          <mxGeometry relative="1" as="geometry">
            <mxPoint x="-1734.5" y="455" as="targetPoint" />
            <mxPoint x="-1584.5" y="455" as="sourcePoint" />
          </mxGeometry>
        </mxCell>
        <mxCell id="URNRII1w7KCXuAZZDhyS-81" value="" style="edgeStyle=orthogonalEdgeStyle;rounded=0;orthogonalLoop=1;jettySize=auto;html=1;dashed=1;endArrow=none;endFill=0;" parent="1" source="eFe6NXDTMwuamUTCRNsm-157" target="URNRII1w7KCXuAZZDhyS-80" edge="1">
          <mxGeometry relative="1" as="geometry" />
        </mxCell>
        <mxCell id="eFe6NXDTMwuamUTCRNsm-157" value="설명서" style="rounded=1;shadow=1;fontStyle=1;fontSize=14;" parent="1" vertex="1">
          <mxGeometry x="-4884" y="430" width="120" height="40" as="geometry" />
        </mxCell>
        <mxCell id="eFe6NXDTMwuamUTCRNsm-158" value="" style="edgeStyle=none;rounded=0;orthogonalLoop=1;jettySize=auto;html=1;dashed=1;strokeWidth=1;endArrow=none;endFill=0;entryX=0;entryY=0.5;entryDx=0;entryDy=0;" parent="1" target="eFe6NXDTMwuamUTCRNsm-159" edge="1">
          <mxGeometry relative="1" as="geometry">
            <mxPoint x="-4886.72" y="450" as="sourcePoint" />
            <mxPoint x="-4824" y="409.9999999999998" as="targetPoint" />
            <Array as="points" />
          </mxGeometry>
        </mxCell>
        <mxCell id="rimcrX7OqDLzWgMT_Scs-48" value="" style="edgeStyle=orthogonalEdgeStyle;rounded=0;orthogonalLoop=1;jettySize=auto;html=1;endArrow=classic;endFill=0;" parent="1" source="eFe6NXDTMwuamUTCRNsm-159" target="rimcrX7OqDLzWgMT_Scs-47" edge="1">
          <mxGeometry relative="1" as="geometry" />
        </mxCell>
        <mxCell id="eFe6NXDTMwuamUTCRNsm-159" value="다운로드" style="rounded=1;shadow=1;fontStyle=1;fontSize=14;" parent="1" vertex="1">
          <mxGeometry x="-5046.72" y="430" width="120" height="40" as="geometry" />
        </mxCell>
        <mxCell id="eFe6NXDTMwuamUTCRNsm-161" value="" style="elbow=vertical;strokeWidth=1;endArrow=none;endFill=0;fontStyle=1;dashed=1;entryX=0.5;entryY=1;entryDx=0;entryDy=0;exitX=0.5;exitY=0;exitDx=0;exitDy=0;" parent="1" source="eFe6NXDTMwuamUTCRNsm-163" target="eFe6NXDTMwuamUTCRNsm-105" edge="1">
          <mxGeometry x="-4092" y="345.5" width="100" height="100" as="geometry">
            <mxPoint x="-4096.5" y="425" as="sourcePoint" />
            <mxPoint x="-4156.5" y="399.9999999999998" as="targetPoint" />
          </mxGeometry>
        </mxCell>
        <mxCell id="a7F1Hl_PlcMjDDjZayLa-35" value="" style="edgeStyle=orthogonalEdgeStyle;rounded=0;orthogonalLoop=1;jettySize=auto;html=1;" parent="1" source="eFe6NXDTMwuamUTCRNsm-163" target="a7F1Hl_PlcMjDDjZayLa-34" edge="1">
          <mxGeometry relative="1" as="geometry" />
        </mxCell>
        <mxCell id="eFe6NXDTMwuamUTCRNsm-163" value="마켓" style="rounded=1;shadow=1;fontStyle=1;fontSize=14;" parent="1" vertex="1">
          <mxGeometry x="-4154" y="430" width="120" height="40" as="geometry" />
        </mxCell>
        <mxCell id="eFe6NXDTMwuamUTCRNsm-169" value="" style="edgeStyle=none;rounded=0;orthogonalLoop=1;jettySize=auto;html=1;dashed=1;strokeWidth=1;endArrow=none;endFill=0;entryX=0;entryY=0.5;entryDx=0;entryDy=0;exitX=1;exitY=0.5;exitDx=0;exitDy=0;" parent="1" source="a7F1Hl_PlcMjDDjZayLa-34" target="a7F1Hl_PlcMjDDjZayLa-36" edge="1">
          <mxGeometry relative="1" as="geometry">
            <mxPoint x="-4034" y="520" as="sourcePoint" />
            <mxPoint x="-4096.5" y="484.9999999999998" as="targetPoint" />
            <Array as="points" />
          </mxGeometry>
        </mxCell>
        <mxCell id="eFe6NXDTMwuamUTCRNsm-178" value="" style="edgeStyle=none;rounded=0;orthogonalLoop=1;jettySize=auto;html=1;dashed=1;strokeWidth=1;endArrow=none;endFill=0;entryX=0.5;entryY=0;entryDx=0;entryDy=0;exitX=0.5;exitY=1;exitDx=0;exitDy=0;" parent="1" source="a7F1Hl_PlcMjDDjZayLa-60" target="a7F1Hl_PlcMjDDjZayLa-57" edge="1">
          <mxGeometry relative="1" as="geometry">
            <mxPoint x="-4209.775555555556" y="810" as="targetPoint" />
          </mxGeometry>
        </mxCell>
        <mxCell id="eFe6NXDTMwuamUTCRNsm-184" value="" style="edgeStyle=none;rounded=0;orthogonalLoop=1;jettySize=auto;html=1;dashed=1;strokeWidth=1;endArrow=none;endFill=0;" parent="1" edge="1">
          <mxGeometry relative="1" as="geometry">
            <mxPoint x="-3944.2200000000003" y="985" as="targetPoint" />
            <mxPoint x="-3944.2200000000003" y="985" as="sourcePoint" />
          </mxGeometry>
        </mxCell>
        <mxCell id="eFe6NXDTMwuamUTCRNsm-179" value="" style="edgeStyle=none;rounded=0;orthogonalLoop=1;jettySize=auto;html=1;dashed=1;strokeWidth=1;endArrow=none;endFill=0;entryX=1;entryY=0.5;entryDx=0;entryDy=0;exitX=0;exitY=0.5;exitDx=0;exitDy=0;" parent="1" source="a7F1Hl_PlcMjDDjZayLa-52" target="a7F1Hl_PlcMjDDjZayLa-55" edge="1">
          <mxGeometry relative="1" as="geometry">
            <mxPoint x="-3916.5" y="819.9999999999998" as="sourcePoint" />
            <mxPoint x="-3916.5" y="844.9999999999998" as="targetPoint" />
            <Array as="points" />
          </mxGeometry>
        </mxCell>
        <mxCell id="eFe6NXDTMwuamUTCRNsm-183" value="" style="edgeStyle=none;rounded=0;orthogonalLoop=1;jettySize=auto;html=1;dashed=1;strokeWidth=1;endArrow=none;endFill=0;exitX=1;exitY=0.5;exitDx=0;exitDy=0;" parent="1" source="eFe6NXDTMwuamUTCRNsm-186" target="eFe6NXDTMwuamUTCRNsm-182" edge="1">
          <mxGeometry relative="1" as="geometry">
            <mxPoint x="-3946.7200000000003" y="1029.05" as="sourcePoint" />
          </mxGeometry>
        </mxCell>
        <mxCell id="eFe6NXDTMwuamUTCRNsm-187" value="" style="edgeStyle=none;rounded=0;orthogonalLoop=1;jettySize=auto;html=1;dashed=1;strokeWidth=1;endArrow=none;endFill=0;exitX=0.5;exitY=1;exitDx=0;exitDy=0;" parent="1" source="a7F1Hl_PlcMjDDjZayLa-55" target="eFe6NXDTMwuamUTCRNsm-186" edge="1">
          <mxGeometry relative="1" as="geometry" />
        </mxCell>
        <mxCell id="eFe6NXDTMwuamUTCRNsm-182" value="희망가격" style="whiteSpace=wrap;html=1;fontSize=14;rounded=1;shadow=1;fontStyle=1;" parent="1" vertex="1">
          <mxGeometry x="-3940.25" y="770" width="92.5" height="40" as="geometry" />
        </mxCell>
        <mxCell id="eFe6NXDTMwuamUTCRNsm-186" value="글업로드버튼" style="whiteSpace=wrap;html=1;fontSize=14;rounded=1;shadow=1;fontStyle=1;" parent="1" vertex="1">
          <mxGeometry x="-4146.09" y="770" width="103.75" height="40" as="geometry" />
        </mxCell>
        <mxCell id="a7F1Hl_PlcMjDDjZayLa-66" value="" style="edgeStyle=none;rounded=0;orthogonalLoop=1;jettySize=auto;html=1;" parent="1" edge="1">
          <mxGeometry relative="1" as="geometry">
            <mxPoint x="-3929.7800000000007" y="575" as="sourcePoint" />
          </mxGeometry>
        </mxCell>
        <mxCell id="eFe6NXDTMwuamUTCRNsm-201" value="" style="edgeStyle=none;rounded=0;orthogonalLoop=1;jettySize=auto;html=1;dashed=1;strokeWidth=1;endArrow=none;endFill=0;exitX=0;exitY=0.5;exitDx=0;exitDy=0;" parent="1" edge="1">
          <mxGeometry relative="1" as="geometry">
            <mxPoint x="-3652.5" y="705" as="sourcePoint" />
          </mxGeometry>
        </mxCell>
        <mxCell id="eFe6NXDTMwuamUTCRNsm-207" value="" style="edgeStyle=none;rounded=0;orthogonalLoop=1;jettySize=auto;html=1;dashed=1;strokeWidth=1;endArrow=none;endFill=0;" parent="1" edge="1">
          <mxGeometry relative="1" as="geometry">
            <mxPoint x="-3787.5" y="705" as="sourcePoint" />
          </mxGeometry>
        </mxCell>
        <mxCell id="eFe6NXDTMwuamUTCRNsm-209" value="" style="edgeStyle=none;rounded=0;orthogonalLoop=1;jettySize=auto;html=1;dashed=1;strokeWidth=1;endArrow=none;endFill=0;" parent="1" edge="1">
          <mxGeometry relative="1" as="geometry">
            <mxPoint x="-3880.475333333333" y="725" as="sourcePoint" />
          </mxGeometry>
        </mxCell>
        <mxCell id="eFe6NXDTMwuamUTCRNsm-215" value="충전하기" style="rounded=1;shadow=1;fontStyle=1;fontSize=14;" parent="1" vertex="1">
          <mxGeometry x="-1450" y="325" width="120" height="40" as="geometry" />
        </mxCell>
        <mxCell id="eFe6NXDTMwuamUTCRNsm-217" value="바로가기 / 구매하기" style="rounded=1;shadow=1;fontStyle=1;fontSize=14;" parent="1" vertex="1">
          <mxGeometry x="-2150" y="565" width="120" height="40" as="geometry" />
        </mxCell>
        <mxCell id="eFe6NXDTMwuamUTCRNsm-219" value="삭제하기" style="rounded=1;shadow=1;fontStyle=1;fontSize=14;" parent="1" vertex="1">
          <mxGeometry x="-2010" y="565" width="120" height="40" as="geometry" />
        </mxCell>
        <mxCell id="eFe6NXDTMwuamUTCRNsm-220" value="" style="elbow=vertical;strokeWidth=1;endArrow=none;endFill=0;fontStyle=1;dashed=1;entryX=0;entryY=0.5;entryDx=0;entryDy=0;exitX=1;exitY=0.5;exitDx=0;exitDy=0;" parent="1" source="eFe6NXDTMwuamUTCRNsm-217" target="eFe6NXDTMwuamUTCRNsm-219" edge="1">
          <mxGeometry x="-2742.5" y="55.5" width="100" height="100" as="geometry">
            <mxPoint x="-2017" y="519.9999999999998" as="sourcePoint" />
            <mxPoint x="-2339.5" y="65" as="targetPoint" />
          </mxGeometry>
        </mxCell>
        <mxCell id="r77UMJ5Ng2X09h00kHRx-42" style="edgeStyle=orthogonalEdgeStyle;rounded=0;orthogonalLoop=1;jettySize=auto;html=1;exitX=1;exitY=0.5;exitDx=0;exitDy=0;entryX=0;entryY=0.5;entryDx=0;entryDy=0;dashed=1;endArrow=none;endFill=0;" parent="1" source="eFe6NXDTMwuamUTCRNsm-221" target="eFe6NXDTMwuamUTCRNsm-140" edge="1">
          <mxGeometry relative="1" as="geometry" />
        </mxCell>
        <mxCell id="eFe6NXDTMwuamUTCRNsm-221" value="선호 사양 LIST" style="rounded=1;shadow=1;fontStyle=1;fontSize=14;fillColor=#d5e8d4;strokeColor=#82b366;" parent="1" vertex="1">
          <mxGeometry x="-2299.5" y="495" width="120" height="40" as="geometry" />
        </mxCell>
        <mxCell id="r77UMJ5Ng2X09h00kHRx-58" value="" style="edgeStyle=orthogonalEdgeStyle;rounded=0;orthogonalLoop=1;jettySize=auto;html=1;endArrow=classic;endFill=1;" parent="1" source="URNRII1w7KCXuAZZDhyS-33" target="URNRII1w7KCXuAZZDhyS-38" edge="1">
          <mxGeometry relative="1" as="geometry" />
        </mxCell>
        <mxCell id="URNRII1w7KCXuAZZDhyS-33" value="회원정보 수정" style="rounded=1;shadow=1;fontStyle=1;fontSize=14;" parent="1" vertex="1">
          <mxGeometry x="-1880" y="250" width="120" height="40" as="geometry" />
        </mxCell>
        <mxCell id="URNRII1w7KCXuAZZDhyS-38" value="닉네임 변경" style="rounded=1;shadow=1;fontStyle=1;fontSize=14;" parent="1" vertex="1">
          <mxGeometry x="-1880" y="325" width="120" height="40" as="geometry" />
        </mxCell>
        <mxCell id="URNRII1w7KCXuAZZDhyS-39" value="프로필 변경" style="rounded=1;shadow=1;fontStyle=1;fontSize=14;" parent="1" vertex="1">
          <mxGeometry x="-2020" y="325" width="120" height="40" as="geometry" />
        </mxCell>
        <mxCell id="URNRII1w7KCXuAZZDhyS-41" value="비밀번호 변경" style="rounded=1;shadow=1;fontStyle=1;fontSize=14;" parent="1" vertex="1">
          <mxGeometry x="-1740" y="325" width="120" height="40" as="geometry" />
        </mxCell>
        <mxCell id="r77UMJ5Ng2X09h00kHRx-73" value="" style="edgeStyle=orthogonalEdgeStyle;rounded=0;orthogonalLoop=1;jettySize=auto;html=1;endArrow=none;endFill=0;dashed=1;" parent="1" source="URNRII1w7KCXuAZZDhyS-42" target="URNRII1w7KCXuAZZDhyS-43" edge="1">
          <mxGeometry relative="1" as="geometry" />
        </mxCell>
        <mxCell id="URNRII1w7KCXuAZZDhyS-42" value="로그아웃" style="rounded=1;shadow=1;fontStyle=1;fontSize=14;fillColor=#d5e8d4;strokeColor=#82b366;" parent="1" vertex="1">
          <mxGeometry x="-1710" y="180" width="120" height="40" as="geometry" />
        </mxCell>
        <mxCell id="URNRII1w7KCXuAZZDhyS-46" value="이용약관 및 운영정책" style="rounded=1;shadow=1;fontStyle=1;fontSize=14;fillColor=#d5e8d4;strokeColor=#82b366;" parent="1" vertex="1">
          <mxGeometry x="-1131" y="180" width="162" height="40" as="geometry" />
        </mxCell>
        <mxCell id="URNRII1w7KCXuAZZDhyS-66" value="" style="edgeStyle=orthogonalEdgeStyle;rounded=0;orthogonalLoop=1;jettySize=auto;html=1;dashed=1;endArrow=none;endFill=0;" parent="1" target="URNRII1w7KCXuAZZDhyS-65" edge="1">
          <mxGeometry relative="1" as="geometry">
            <mxPoint x="-2777" y="460.0000000000002" as="sourcePoint" />
          </mxGeometry>
        </mxCell>
        <mxCell id="URNRII1w7KCXuAZZDhyS-69" value="" style="edgeStyle=orthogonalEdgeStyle;rounded=0;orthogonalLoop=1;jettySize=auto;html=1;dashed=1;endArrow=none;endFill=0;" parent="1" source="URNRII1w7KCXuAZZDhyS-65" target="URNRII1w7KCXuAZZDhyS-68" edge="1">
          <mxGeometry relative="1" as="geometry" />
        </mxCell>
        <mxCell id="URNRII1w7KCXuAZZDhyS-65" value="자유게시판" style="rounded=1;shadow=1;fontStyle=1;fontSize=14;" parent="1" vertex="1">
          <mxGeometry x="-2757.5" y="440" width="120" height="40" as="geometry" />
        </mxCell>
        <mxCell id="URNRII1w7KCXuAZZDhyS-68" value="IT정보 / 게시판" style="rounded=1;shadow=1;fontStyle=1;fontSize=14;" parent="1" vertex="1">
          <mxGeometry x="-2617" y="440" width="120" height="40" as="geometry" />
        </mxCell>
        <mxCell id="URNRII1w7KCXuAZZDhyS-72" value="" style="edgeStyle=orthogonalEdgeStyle;rounded=0;orthogonalLoop=1;jettySize=auto;html=1;dashed=1;endArrow=none;endFill=0;" parent="1" source="URNRII1w7KCXuAZZDhyS-71" target="URNRII1w7KCXuAZZDhyS-65" edge="1">
          <mxGeometry relative="1" as="geometry" />
        </mxCell>
        <mxCell id="URNRII1w7KCXuAZZDhyS-71" value="PC정보 게시판" style="rounded=1;shadow=1;fontStyle=1;fontSize=14;" parent="1" vertex="1">
          <mxGeometry x="-2897" y="440" width="120" height="40" as="geometry" />
        </mxCell>
        <mxCell id="URNRII1w7KCXuAZZDhyS-80" value="분석된 사양정보?" style="rounded=1;shadow=1;fontStyle=1;fontSize=14;" parent="1" vertex="1">
          <mxGeometry x="-4736.72" y="430" width="120" height="40" as="geometry" />
        </mxCell>
        <mxCell id="URNRII1w7KCXuAZZDhyS-83" value="사양분석" style="rounded=1;shadow=1;fontStyle=1;fontSize=14;" parent="1" vertex="1">
          <mxGeometry x="-3530.5" y="725" width="120" height="40" as="geometry" />
        </mxCell>
        <mxCell id="r77UMJ5Ng2X09h00kHRx-61" value="" style="edgeStyle=orthogonalEdgeStyle;rounded=0;orthogonalLoop=1;jettySize=auto;html=1;endArrow=classic;endFill=1;" parent="1" source="URNRII1w7KCXuAZZDhyS-91" target="URNRII1w7KCXuAZZDhyS-93" edge="1">
          <mxGeometry relative="1" as="geometry" />
        </mxCell>
        <mxCell id="URNRII1w7KCXuAZZDhyS-91" value="앱 설정" style="rounded=1;shadow=1;fontStyle=1;fontSize=14;fillColor=#d5e8d4;strokeColor=#82b366;" parent="1" vertex="1">
          <mxGeometry x="-1410" y="495" width="120" height="40" as="geometry" />
        </mxCell>
        <mxCell id="URNRII1w7KCXuAZZDhyS-93" value="알림 및 소리" style="rounded=1;shadow=1;fontStyle=1;fontSize=14;" parent="1" vertex="1">
          <mxGeometry x="-1410" y="565" width="120" height="40" as="geometry" />
        </mxCell>
        <mxCell id="URNRII1w7KCXuAZZDhyS-108" value="" style="edgeStyle=orthogonalEdgeStyle;rounded=0;orthogonalLoop=1;jettySize=auto;html=1;dashed=1;fontSize=22;endArrow=none;endFill=0;exitX=1;exitY=0.5;exitDx=0;exitDy=0;" parent="1" source="URNRII1w7KCXuAZZDhyS-91" target="URNRII1w7KCXuAZZDhyS-107" edge="1">
          <mxGeometry relative="1" as="geometry" />
        </mxCell>
        <mxCell id="XjYkyjgMCkCa7mMpTtTm-69" value="" style="edgeStyle=orthogonalEdgeStyle;rounded=0;orthogonalLoop=1;jettySize=auto;html=1;" parent="1" source="URNRII1w7KCXuAZZDhyS-103" target="URNRII1w7KCXuAZZDhyS-105" edge="1">
          <mxGeometry relative="1" as="geometry" />
        </mxCell>
        <mxCell id="URNRII1w7KCXuAZZDhyS-103" value="자주 묻는 질문" style="rounded=1;shadow=1;fontStyle=1;fontSize=14;" parent="1" vertex="1">
          <mxGeometry x="-1308.5" y="265" width="120" height="40" as="geometry" />
        </mxCell>
        <mxCell id="URNRII1w7KCXuAZZDhyS-105" value="문의 남기기" style="rounded=1;shadow=1;fontStyle=1;fontSize=14;" parent="1" vertex="1">
          <mxGeometry x="-1308.5" y="330" width="120" height="40" as="geometry" />
        </mxCell>
        <mxCell id="URNRII1w7KCXuAZZDhyS-107" value="튜토리얼 다시보기" style="rounded=1;shadow=1;fontStyle=1;fontSize=14;fillColor=#d5e8d4;strokeColor=#82b366;" parent="1" vertex="1">
          <mxGeometry x="-1246" y="495" width="120" height="40" as="geometry" />
        </mxCell>
        <mxCell id="rimcrX7OqDLzWgMT_Scs-36" style="edgeStyle=none;rounded=0;orthogonalLoop=1;jettySize=auto;html=1;entryX=1;entryY=0.5;entryDx=0;entryDy=0;dashed=1;strokeWidth=1;fontFamily=Comic Sans MS;endArrow=none;endFill=0;exitX=0;exitY=0.5;exitDx=0;exitDy=0;" parent="1" edge="1">
          <mxGeometry relative="1" as="geometry">
            <mxPoint x="-4010" y="650" as="targetPoint" />
          </mxGeometry>
        </mxCell>
        <mxCell id="rimcrX7OqDLzWgMT_Scs-38" value="" style="edgeStyle=orthogonalEdgeStyle;rounded=0;orthogonalLoop=1;jettySize=auto;html=1;dashed=1;endArrow=classic;endFill=1;" parent="1" edge="1">
          <mxGeometry relative="1" as="geometry">
            <mxPoint x="-4070" y="750" as="targetPoint" />
          </mxGeometry>
        </mxCell>
        <mxCell id="rimcrX7OqDLzWgMT_Scs-40" value="" style="edgeStyle=orthogonalEdgeStyle;rounded=0;orthogonalLoop=1;jettySize=auto;html=1;dashed=1;" parent="1" edge="1">
          <mxGeometry relative="1" as="geometry">
            <mxPoint x="-4070" y="835" as="targetPoint" />
          </mxGeometry>
        </mxCell>
        <mxCell id="rimcrX7OqDLzWgMT_Scs-42" value="" style="edgeStyle=orthogonalEdgeStyle;rounded=0;orthogonalLoop=1;jettySize=auto;html=1;dashed=1;endArrow=classic;endFill=1;exitX=0.5;exitY=1;exitDx=0;exitDy=0;" parent="1" source="a7F1Hl_PlcMjDDjZayLa-78" target="rimcrX7OqDLzWgMT_Scs-45" edge="1">
          <mxGeometry relative="1" as="geometry" />
        </mxCell>
        <mxCell id="rimcrX7OqDLzWgMT_Scs-44" value="" style="edgeStyle=orthogonalEdgeStyle;rounded=0;orthogonalLoop=1;jettySize=auto;html=1;dashed=1;endArrow=none;endFill=0;" parent="1" source="rimcrX7OqDLzWgMT_Scs-45" target="rimcrX7OqDLzWgMT_Scs-46" edge="1">
          <mxGeometry relative="1" as="geometry" />
        </mxCell>
        <mxCell id="rimcrX7OqDLzWgMT_Scs-45" value="주소기입" style="rounded=1;shadow=1;fontStyle=1;fontSize=14;" parent="1" vertex="1">
          <mxGeometry x="-4354" y="1050" width="120" height="40" as="geometry" />
        </mxCell>
        <mxCell id="rimcrX7OqDLzWgMT_Scs-46" value="예치금 전송" style="rounded=1;shadow=1;fontStyle=1;fontSize=14;" parent="1" vertex="1">
          <mxGeometry x="-4206.5" y="1050" width="120" height="40" as="geometry" />
        </mxCell>
        <mxCell id="rimcrX7OqDLzWgMT_Scs-50" value="" style="edgeStyle=orthogonalEdgeStyle;rounded=0;orthogonalLoop=1;jettySize=auto;html=1;endArrow=classic;endFill=0;" parent="1" source="rimcrX7OqDLzWgMT_Scs-47" target="rimcrX7OqDLzWgMT_Scs-49" edge="1">
          <mxGeometry relative="1" as="geometry" />
        </mxCell>
        <mxCell id="rimcrX7OqDLzWgMT_Scs-47" value="로그인" style="rounded=1;shadow=1;fontStyle=1;fontSize=14;" parent="1" vertex="1">
          <mxGeometry x="-5046.72" y="525" width="120" height="40" as="geometry" />
        </mxCell>
        <mxCell id="rimcrX7OqDLzWgMT_Scs-52" value="" style="edgeStyle=orthogonalEdgeStyle;rounded=0;orthogonalLoop=1;jettySize=auto;html=1;endArrow=classic;endFill=0;" parent="1" source="rimcrX7OqDLzWgMT_Scs-49" target="rimcrX7OqDLzWgMT_Scs-51" edge="1">
          <mxGeometry relative="1" as="geometry" />
        </mxCell>
        <mxCell id="rimcrX7OqDLzWgMT_Scs-49" value="사양 분석 시작" style="rounded=1;shadow=1;fontStyle=1;fontSize=14;" parent="1" vertex="1">
          <mxGeometry x="-5046.72" y="620" width="120" height="40" as="geometry" />
        </mxCell>
        <mxCell id="rimcrX7OqDLzWgMT_Scs-54" value="" style="edgeStyle=orthogonalEdgeStyle;rounded=0;orthogonalLoop=1;jettySize=auto;html=1;endArrow=none;endFill=0;dashed=1;" parent="1" source="rimcrX7OqDLzWgMT_Scs-51" target="rimcrX7OqDLzWgMT_Scs-53" edge="1">
          <mxGeometry relative="1" as="geometry" />
        </mxCell>
        <mxCell id="rimcrX7OqDLzWgMT_Scs-51" value="결과값" style="rounded=1;shadow=1;fontStyle=1;fontSize=14;" parent="1" vertex="1">
          <mxGeometry x="-5046.72" y="740" width="120" height="40" as="geometry" />
        </mxCell>
        <mxCell id="rimcrX7OqDLzWgMT_Scs-56" value="" style="edgeStyle=orthogonalEdgeStyle;rounded=0;orthogonalLoop=1;jettySize=auto;html=1;dashed=1;endArrow=none;endFill=0;" parent="1" source="rimcrX7OqDLzWgMT_Scs-53" target="rimcrX7OqDLzWgMT_Scs-55" edge="1">
          <mxGeometry relative="1" as="geometry" />
        </mxCell>
        <mxCell id="rimcrX7OqDLzWgMT_Scs-53" value="이름" style="rounded=1;shadow=1;fontStyle=1;fontSize=14;" parent="1" vertex="1">
          <mxGeometry x="-4846.72" y="740" width="120" height="40" as="geometry" />
        </mxCell>
        <mxCell id="rimcrX7OqDLzWgMT_Scs-58" value="" style="edgeStyle=orthogonalEdgeStyle;rounded=0;orthogonalLoop=1;jettySize=auto;html=1;dashed=1;endArrow=none;endFill=0;" parent="1" source="rimcrX7OqDLzWgMT_Scs-55" target="rimcrX7OqDLzWgMT_Scs-57" edge="1">
          <mxGeometry relative="1" as="geometry" />
        </mxCell>
        <mxCell id="rimcrX7OqDLzWgMT_Scs-55" value="저장버튼" style="rounded=1;shadow=1;fontStyle=1;fontSize=14;" parent="1" vertex="1">
          <mxGeometry x="-4846.72" y="830" width="120" height="40" as="geometry" />
        </mxCell>
        <mxCell id="rimcrX7OqDLzWgMT_Scs-57" value="마이페이지&#xa;내 컴퓨터 사양정보" style="rounded=1;shadow=1;fontStyle=1;fontSize=14;" parent="1" vertex="1">
          <mxGeometry x="-5046.72" y="830" width="120" height="40" as="geometry" />
        </mxCell>
        <mxCell id="rimcrX7OqDLzWgMT_Scs-62" value="제품별 사양 LIST" style="rounded=1;shadow=1;fontStyle=1;fontSize=14;" parent="1" vertex="1">
          <mxGeometry x="-1577.5" y="565" width="120" height="40" as="geometry" />
        </mxCell>
        <mxCell id="rimcrX7OqDLzWgMT_Scs-66" value="마이페이지" style="rounded=1;shadow=1;fontStyle=1;fontSize=14;" parent="1" vertex="1">
          <mxGeometry x="-3248" y="725" width="120" height="40" as="geometry" />
        </mxCell>
        <mxCell id="rimcrX7OqDLzWgMT_Scs-68" value="확인 /  취소" style="rounded=1;shadow=1;fontStyle=1;fontSize=14;fillColor=#d0cee2;strokeColor=#56517e;" parent="1" vertex="1">
          <mxGeometry x="-3240.5" y="565" width="120" height="40" as="geometry" />
        </mxCell>
        <mxCell id="XjYkyjgMCkCa7mMpTtTm-61" value="" style="edgeStyle=orthogonalEdgeStyle;rounded=0;orthogonalLoop=1;jettySize=auto;html=1;" parent="1" source="rimcrX7OqDLzWgMT_Scs-70" target="rimcrX7OqDLzWgMT_Scs-72" edge="1">
          <mxGeometry relative="1" as="geometry" />
        </mxCell>
        <mxCell id="rimcrX7OqDLzWgMT_Scs-70" value="사양 비교" style="rounded=1;shadow=1;fontStyle=1;fontSize=14;" parent="1" vertex="1">
          <mxGeometry x="-1714.5" y="645.87" width="120" height="40" as="geometry" />
        </mxCell>
        <mxCell id="XjYkyjgMCkCa7mMpTtTm-62" value="" style="edgeStyle=orthogonalEdgeStyle;rounded=0;orthogonalLoop=1;jettySize=auto;html=1;" parent="1" edge="1">
          <mxGeometry relative="1" as="geometry">
            <mxPoint x="-1654.5" y="782" as="sourcePoint" />
            <mxPoint x="-1654.5" y="852" as="targetPoint" />
          </mxGeometry>
        </mxCell>
        <mxCell id="rimcrX7OqDLzWgMT_Scs-72" value="구매키 인증" style="rounded=1;shadow=1;fontStyle=1;fontSize=14;" parent="1" vertex="1">
          <mxGeometry x="-1714.5" y="750" width="120" height="40" as="geometry" />
        </mxCell>
        <mxCell id="rimcrX7OqDLzWgMT_Scs-74" value="확인" style="rounded=1;shadow=1;fontStyle=1;fontSize=14;" parent="1" vertex="1">
          <mxGeometry x="-1714.5" y="850" width="120" height="40" as="geometry" />
        </mxCell>
        <mxCell id="rimcrX7OqDLzWgMT_Scs-78" value="" style="edgeStyle=orthogonalEdgeStyle;rounded=0;orthogonalLoop=1;jettySize=auto;html=1;dashed=1;endArrow=none;endFill=0;" parent="1" source="rimcrX7OqDLzWgMT_Scs-76" target="eFe6NXDTMwuamUTCRNsm-148" edge="1">
          <mxGeometry relative="1" as="geometry" />
        </mxCell>
        <mxCell id="rimcrX7OqDLzWgMT_Scs-76" value="판매중인 상품 LIST" style="rounded=1;shadow=1;fontStyle=1;fontSize=14;" parent="1" vertex="1">
          <mxGeometry x="-1854.5" y="645.87" width="120" height="40" as="geometry" />
        </mxCell>
        <mxCell id="a7F1Hl_PlcMjDDjZayLa-34" value="검색창" style="rounded=1;shadow=1;fontStyle=1;fontSize=14;" parent="1" vertex="1">
          <mxGeometry x="-4154" y="565" width="120" height="40" as="geometry" />
        </mxCell>
        <mxCell id="a7F1Hl_PlcMjDDjZayLa-53" value="" style="edgeStyle=none;rounded=0;orthogonalLoop=1;jettySize=auto;html=1;" parent="1" source="a7F1Hl_PlcMjDDjZayLa-36" target="a7F1Hl_PlcMjDDjZayLa-52" edge="1">
          <mxGeometry relative="1" as="geometry" />
        </mxCell>
        <mxCell id="a7F1Hl_PlcMjDDjZayLa-36" value="판매하기" style="rounded=1;shadow=1;fontStyle=1;fontSize=14;" parent="1" vertex="1">
          <mxGeometry x="-3954" y="565" width="120" height="40" as="geometry" />
        </mxCell>
        <mxCell id="a7F1Hl_PlcMjDDjZayLa-47" value="" style="endArrow=none;dashed=1;html=1;dashPattern=1 3;strokeWidth=2;rounded=0;exitX=1;exitY=0.5;exitDx=0;exitDy=0;entryX=0;entryY=0.5;entryDx=0;entryDy=0;" parent="1" source="a7F1Hl_PlcMjDDjZayLa-48" target="a7F1Hl_PlcMjDDjZayLa-34" edge="1">
          <mxGeometry width="50" height="50" relative="1" as="geometry">
            <mxPoint x="-3856.7200000000003" y="560" as="sourcePoint" />
            <mxPoint x="-3806.7200000000003" y="510" as="targetPoint" />
          </mxGeometry>
        </mxCell>
        <mxCell id="a7F1Hl_PlcMjDDjZayLa-71" value="" style="edgeStyle=none;rounded=0;orthogonalLoop=1;jettySize=auto;html=1;" parent="1" source="a7F1Hl_PlcMjDDjZayLa-48" target="a7F1Hl_PlcMjDDjZayLa-70" edge="1">
          <mxGeometry relative="1" as="geometry" />
        </mxCell>
        <mxCell id="a7F1Hl_PlcMjDDjZayLa-48" value="상품 LIST" style="rounded=1;shadow=1;fontStyle=1;fontSize=14;" parent="1" vertex="1">
          <mxGeometry x="-4354" y="565" width="120" height="40" as="geometry" />
        </mxCell>
        <mxCell id="a7F1Hl_PlcMjDDjZayLa-52" value="추천가격표시" style="rounded=1;shadow=1;fontStyle=1;fontSize=14;" parent="1" vertex="1">
          <mxGeometry x="-3954" y="685" width="120" height="40" as="geometry" />
        </mxCell>
        <mxCell id="a7F1Hl_PlcMjDDjZayLa-55" value="제목" style="rounded=1;shadow=1;fontStyle=1;fontSize=14;" parent="1" vertex="1">
          <mxGeometry x="-4154" y="685" width="120" height="40" as="geometry" />
        </mxCell>
        <mxCell id="a7F1Hl_PlcMjDDjZayLa-57" value="사진업로드" style="rounded=1;shadow=1;fontStyle=1;fontSize=14;" parent="1" vertex="1">
          <mxGeometry x="-3754" y="770" width="120" height="40" as="geometry" />
        </mxCell>
        <mxCell id="a7F1Hl_PlcMjDDjZayLa-60" value="사양정보 불러오기" style="rounded=1;shadow=1;fontStyle=1;fontSize=14;" parent="1" vertex="1">
          <mxGeometry x="-3754" y="685" width="120" height="40" as="geometry" />
        </mxCell>
        <mxCell id="a7F1Hl_PlcMjDDjZayLa-62" value="" style="edgeStyle=none;rounded=0;orthogonalLoop=1;jettySize=auto;html=1;dashed=1;strokeWidth=1;endArrow=none;endFill=0;entryX=1;entryY=0.5;entryDx=0;entryDy=0;" parent="1" source="a7F1Hl_PlcMjDDjZayLa-60" target="a7F1Hl_PlcMjDDjZayLa-52" edge="1">
          <mxGeometry relative="1" as="geometry">
            <mxPoint x="-3944" y="715" as="sourcePoint" />
            <mxPoint x="-4024" y="715" as="targetPoint" />
            <Array as="points" />
          </mxGeometry>
        </mxCell>
        <mxCell id="a7F1Hl_PlcMjDDjZayLa-69" value="" style="edgeStyle=none;rounded=0;orthogonalLoop=1;jettySize=auto;html=1;dashed=1;strokeWidth=1;endArrow=none;endFill=0;entryX=0;entryY=0.5;entryDx=0;entryDy=0;exitX=1;exitY=0.5;exitDx=0;exitDy=0;" parent="1" source="eFe6NXDTMwuamUTCRNsm-182" target="a7F1Hl_PlcMjDDjZayLa-57" edge="1">
          <mxGeometry relative="1" as="geometry">
            <mxPoint x="-3684" y="735" as="sourcePoint" />
            <mxPoint x="-3684" y="780" as="targetPoint" />
          </mxGeometry>
        </mxCell>
        <mxCell id="a7F1Hl_PlcMjDDjZayLa-70" value="사진" style="rounded=1;shadow=1;fontStyle=1;fontSize=14;" parent="1" vertex="1">
          <mxGeometry x="-4354" y="685" width="120" height="40" as="geometry" />
        </mxCell>
        <mxCell id="a7F1Hl_PlcMjDDjZayLa-72" value="이름" style="rounded=1;shadow=1;fontStyle=1;fontSize=14;" parent="1" vertex="1">
          <mxGeometry x="-4354" y="760" width="120" height="40" as="geometry" />
        </mxCell>
        <mxCell id="a7F1Hl_PlcMjDDjZayLa-74" value="" style="edgeStyle=none;rounded=0;orthogonalLoop=1;jettySize=auto;html=1;dashed=1;strokeWidth=1;endArrow=none;endFill=0;exitX=0.5;exitY=1;exitDx=0;exitDy=0;" parent="1" source="a7F1Hl_PlcMjDDjZayLa-70" target="a7F1Hl_PlcMjDDjZayLa-72" edge="1">
          <mxGeometry relative="1" as="geometry">
            <mxPoint x="-4084" y="735" as="sourcePoint" />
            <mxPoint x="-4084.1488461538456" y="780" as="targetPoint" />
          </mxGeometry>
        </mxCell>
        <mxCell id="a7F1Hl_PlcMjDDjZayLa-79" value="" style="edgeStyle=none;rounded=0;orthogonalLoop=1;jettySize=auto;html=1;" parent="1" source="a7F1Hl_PlcMjDDjZayLa-75" target="a7F1Hl_PlcMjDDjZayLa-78" edge="1">
          <mxGeometry relative="1" as="geometry" />
        </mxCell>
        <mxCell id="a7F1Hl_PlcMjDDjZayLa-75" value="사양정보" style="rounded=1;shadow=1;fontStyle=1;fontSize=14;" parent="1" vertex="1">
          <mxGeometry x="-4354" y="840" width="120" height="40" as="geometry" />
        </mxCell>
        <mxCell id="a7F1Hl_PlcMjDDjZayLa-77" value="" style="edgeStyle=none;rounded=0;orthogonalLoop=1;jettySize=auto;html=1;dashed=1;strokeWidth=1;endArrow=none;endFill=0;exitX=0.5;exitY=1;exitDx=0;exitDy=0;entryX=0.5;entryY=0;entryDx=0;entryDy=0;" parent="1" source="a7F1Hl_PlcMjDDjZayLa-72" target="a7F1Hl_PlcMjDDjZayLa-75" edge="1">
          <mxGeometry relative="1" as="geometry">
            <mxPoint x="-4084" y="735" as="sourcePoint" />
            <mxPoint x="-4084.1488461538456" y="780" as="targetPoint" />
          </mxGeometry>
        </mxCell>
        <mxCell id="a7F1Hl_PlcMjDDjZayLa-78" value="구입하기 버튼" style="rounded=1;shadow=1;fontStyle=1;fontSize=14;" parent="1" vertex="1">
          <mxGeometry x="-4354" y="960" width="120" height="40" as="geometry" />
        </mxCell>
        <mxCell id="XjYkyjgMCkCa7mMpTtTm-34" value="" style="edgeStyle=orthogonalEdgeStyle;rounded=0;orthogonalLoop=1;jettySize=auto;html=1;dashed=1;endArrow=none;endFill=0;exitX=1;exitY=0.5;exitDx=0;exitDy=0;entryX=0;entryY=0.5;entryDx=0;entryDy=0;" parent="1" source="eFe6NXDTMwuamUTCRNsm-127" target="eFe6NXDTMwuamUTCRNsm-131" edge="1">
          <mxGeometry relative="1" as="geometry">
            <mxPoint x="-3490.5" y="680" as="sourcePoint" />
            <mxPoint x="-3490.5" y="735" as="targetPoint" />
          </mxGeometry>
        </mxCell>
        <mxCell id="XjYkyjgMCkCa7mMpTtTm-35" value="" style="edgeStyle=none;rounded=0;orthogonalLoop=1;jettySize=auto;html=1;dashed=1;strokeWidth=1;endArrow=none;endFill=0;exitX=0.5;exitY=0;exitDx=0;exitDy=0;entryX=0.5;entryY=1;entryDx=0;entryDy=0;" parent="1" source="rimcrX7OqDLzWgMT_Scs-66" target="eFe6NXDTMwuamUTCRNsm-126" edge="1">
          <mxGeometry relative="1" as="geometry">
            <mxPoint x="-3295.5" y="660" as="targetPoint" />
            <mxPoint x="-3238" y="660" as="sourcePoint" />
          </mxGeometry>
        </mxCell>
        <mxCell id="XjYkyjgMCkCa7mMpTtTm-38" value="" style="edgeStyle=none;rounded=0;orthogonalLoop=1;jettySize=auto;html=1;dashed=1;strokeWidth=1;endArrow=none;endFill=0;exitX=0;exitY=0.5;exitDx=0;exitDy=0;entryX=1;entryY=0.5;entryDx=0;entryDy=0;" parent="1" source="rimcrX7OqDLzWgMT_Scs-66" target="URNRII1w7KCXuAZZDhyS-83" edge="1">
          <mxGeometry relative="1" as="geometry">
            <mxPoint x="-3178" y="680" as="targetPoint" />
            <mxPoint x="-3178" y="735" as="sourcePoint" />
          </mxGeometry>
        </mxCell>
        <mxCell id="eFe6NXDTMwuamUTCRNsm-67" value="선호 사양 설문" style="rounded=1;shadow=1;fontStyle=1;fontSize=14;" parent="1" vertex="1">
          <mxGeometry x="-3080" y="500" width="120" height="40" as="geometry" />
        </mxCell>
        <mxCell id="XjYkyjgMCkCa7mMpTtTm-46" value="" style="edgeStyle=orthogonalEdgeStyle;rounded=0;orthogonalLoop=1;jettySize=auto;html=1;endArrow=none;" parent="1" source="eFe6NXDTMwuamUTCRNsm-66" target="eFe6NXDTMwuamUTCRNsm-67" edge="1">
          <mxGeometry relative="1" as="geometry">
            <mxPoint x="-3020.0000000000005" y="475" as="sourcePoint" />
            <mxPoint x="-3020.0000000000005" y="582.5" as="targetPoint" />
          </mxGeometry>
        </mxCell>
        <mxCell id="XjYkyjgMCkCa7mMpTtTm-48" value="" style="edgeStyle=orthogonalEdgeStyle;rounded=0;orthogonalLoop=1;jettySize=auto;html=1;dashed=1;endArrow=none;endFill=0;exitX=0.5;exitY=1;exitDx=0;exitDy=0;entryX=0.5;entryY=0;entryDx=0;entryDy=0;" parent="1" source="rimcrX7OqDLzWgMT_Scs-51" target="rimcrX7OqDLzWgMT_Scs-57" edge="1">
          <mxGeometry relative="1" as="geometry">
            <mxPoint x="-4776.72" y="790" as="sourcePoint" />
            <mxPoint x="-4776.72" y="840" as="targetPoint" />
          </mxGeometry>
        </mxCell>
        <mxCell id="r77UMJ5Ng2X09h00kHRx-69" value="" style="edgeStyle=orthogonalEdgeStyle;rounded=0;orthogonalLoop=1;jettySize=auto;html=1;endArrow=classic;endFill=1;" parent="1" source="URNRII1w7KCXuAZZDhyS-101" target="URNRII1w7KCXuAZZDhyS-103" edge="1">
          <mxGeometry relative="1" as="geometry" />
        </mxCell>
        <mxCell id="r77UMJ5Ng2X09h00kHRx-74" value="" style="edgeStyle=orthogonalEdgeStyle;rounded=0;orthogonalLoop=1;jettySize=auto;html=1;endArrow=none;endFill=0;dashed=1;" parent="1" source="URNRII1w7KCXuAZZDhyS-101" target="URNRII1w7KCXuAZZDhyS-46" edge="1">
          <mxGeometry relative="1" as="geometry" />
        </mxCell>
        <mxCell id="URNRII1w7KCXuAZZDhyS-101" value="고객센터" style="rounded=1;shadow=1;fontStyle=1;fontSize=14;fillColor=#d5e8d4;strokeColor=#82b366;" parent="1" vertex="1">
          <mxGeometry x="-1308.5" y="180" width="120" height="40" as="geometry" />
        </mxCell>
        <mxCell id="r77UMJ5Ng2X09h00kHRx-34" value="" style="endArrow=classic;html=1;rounded=0;exitX=0.5;exitY=1;exitDx=0;exitDy=0;entryX=0.5;entryY=0;entryDx=0;entryDy=0;" parent="1" source="eFe6NXDTMwuamUTCRNsm-108" edge="1">
          <mxGeometry width="50" height="50" relative="1" as="geometry">
            <mxPoint x="-2860" y="750" as="sourcePoint" />
            <mxPoint x="-2837" y="439.9999999999998" as="targetPoint" />
          </mxGeometry>
        </mxCell>
        <mxCell id="r77UMJ5Ng2X09h00kHRx-40" value="" style="edgeStyle=orthogonalEdgeStyle;rounded=0;orthogonalLoop=1;jettySize=auto;html=1;endArrow=none;endFill=0;dashed=1;" parent="1" source="r77UMJ5Ng2X09h00kHRx-39" target="URNRII1w7KCXuAZZDhyS-68" edge="1">
          <mxGeometry relative="1" as="geometry" />
        </mxCell>
        <mxCell id="r77UMJ5Ng2X09h00kHRx-39" value="투데이 베스트" style="rounded=1;shadow=1;fontStyle=1;fontSize=14;" parent="1" vertex="1">
          <mxGeometry x="-2478" y="440" width="120" height="40" as="geometry" />
        </mxCell>
        <mxCell id="r77UMJ5Ng2X09h00kHRx-43" value="예치금" style="rounded=1;shadow=1;fontStyle=1;fontSize=14;" parent="1" vertex="1">
          <mxGeometry x="-1600" y="250" width="120" height="40" as="geometry" />
        </mxCell>
        <mxCell id="r77UMJ5Ng2X09h00kHRx-44" value="예치금 내역" style="rounded=1;shadow=1;fontStyle=1;fontSize=14;" parent="1" vertex="1">
          <mxGeometry x="-1600" y="325" width="120" height="40" as="geometry" />
        </mxCell>
        <mxCell id="URNRII1w7KCXuAZZDhyS-43" value="회원탈퇴" style="rounded=1;shadow=1;fontStyle=1;fontSize=14;fillColor=#d5e8d4;strokeColor=#82b366;" parent="1" vertex="1">
          <mxGeometry x="-1540" y="180" width="120" height="40" as="geometry" />
        </mxCell>
        <mxCell id="r77UMJ5Ng2X09h00kHRx-68" value="" style="endArrow=none;dashed=1;html=1;rounded=0;exitX=0;exitY=0.5;exitDx=0;exitDy=0;entryX=1;entryY=0.5;entryDx=0;entryDy=0;" parent="1" source="URNRII1w7KCXuAZZDhyS-101" target="URNRII1w7KCXuAZZDhyS-43" edge="1">
          <mxGeometry width="50" height="50" relative="1" as="geometry">
            <mxPoint x="-1777" y="490" as="sourcePoint" />
            <mxPoint x="-1727" y="440" as="targetPoint" />
          </mxGeometry>
        </mxCell>
        <mxCell id="r77UMJ5Ng2X09h00kHRx-75" value="" style="endArrow=none;dashed=1;html=1;dashPattern=1 3;strokeWidth=2;rounded=0;exitX=1;exitY=0.5;exitDx=0;exitDy=0;entryX=0;entryY=0.5;entryDx=0;entryDy=0;" parent="1" source="URNRII1w7KCXuAZZDhyS-39" target="URNRII1w7KCXuAZZDhyS-38" edge="1">
          <mxGeometry width="50" height="50" relative="1" as="geometry">
            <mxPoint x="-2000" y="690" as="sourcePoint" />
            <mxPoint x="-1950" y="640" as="targetPoint" />
          </mxGeometry>
        </mxCell>
        <mxCell id="r77UMJ5Ng2X09h00kHRx-76" value="" style="endArrow=none;dashed=1;html=1;dashPattern=1 3;strokeWidth=2;rounded=0;exitX=1;exitY=0.5;exitDx=0;exitDy=0;entryX=0;entryY=0.5;entryDx=0;entryDy=0;" parent="1" source="URNRII1w7KCXuAZZDhyS-38" target="URNRII1w7KCXuAZZDhyS-41" edge="1">
          <mxGeometry width="50" height="50" relative="1" as="geometry">
            <mxPoint x="-2000" y="690" as="sourcePoint" />
            <mxPoint x="-1950" y="640" as="targetPoint" />
          </mxGeometry>
        </mxCell>
        <mxCell id="r77UMJ5Ng2X09h00kHRx-77" value="" style="endArrow=none;dashed=1;html=1;rounded=0;exitX=1;exitY=0.5;exitDx=0;exitDy=0;entryX=0;entryY=0.5;entryDx=0;entryDy=0;" parent="1" source="URNRII1w7KCXuAZZDhyS-33" target="r77UMJ5Ng2X09h00kHRx-43" edge="1">
          <mxGeometry width="50" height="50" relative="1" as="geometry">
            <mxPoint x="-2000" y="690" as="sourcePoint" />
            <mxPoint x="-1950" y="640" as="targetPoint" />
          </mxGeometry>
        </mxCell>
        <mxCell id="r77UMJ5Ng2X09h00kHRx-78" value="" style="endArrow=none;dashed=1;html=1;rounded=0;exitX=0.5;exitY=1;exitDx=0;exitDy=0;entryX=0.5;entryY=0;entryDx=0;entryDy=0;" parent="1" source="r77UMJ5Ng2X09h00kHRx-43" target="r77UMJ5Ng2X09h00kHRx-44" edge="1">
          <mxGeometry width="50" height="50" relative="1" as="geometry">
            <mxPoint x="-2000" y="690" as="sourcePoint" />
            <mxPoint x="-1950" y="640" as="targetPoint" />
          </mxGeometry>
        </mxCell>
        <mxCell id="r77UMJ5Ng2X09h00kHRx-80" value="" style="endArrow=none;dashed=1;html=1;rounded=0;exitX=1;exitY=0.5;exitDx=0;exitDy=0;entryX=0;entryY=0.5;entryDx=0;entryDy=0;" parent="1" source="r77UMJ5Ng2X09h00kHRx-44" target="eFe6NXDTMwuamUTCRNsm-215" edge="1">
          <mxGeometry width="50" height="50" relative="1" as="geometry">
            <mxPoint x="-2000" y="690" as="sourcePoint" />
            <mxPoint x="-1950" y="640" as="targetPoint" />
          </mxGeometry>
        </mxCell>
        <mxCell id="r77UMJ5Ng2X09h00kHRx-81" value="" style="endArrow=none;dashed=1;html=1;rounded=0;exitX=1;exitY=0.5;exitDx=0;exitDy=0;entryX=0;entryY=0.5;entryDx=0;entryDy=0;" parent="1" source="eFe6NXDTMwuamUTCRNsm-155" target="URNRII1w7KCXuAZZDhyS-91" edge="1">
          <mxGeometry width="50" height="50" relative="1" as="geometry">
            <mxPoint x="-1910" y="550" as="sourcePoint" />
            <mxPoint x="-1860" y="500" as="targetPoint" />
          </mxGeometry>
        </mxCell>
        <mxCell id="r77UMJ5Ng2X09h00kHRx-87" value="" style="edgeStyle=orthogonalEdgeStyle;rounded=0;orthogonalLoop=1;jettySize=auto;html=1;endArrow=block;endFill=1;" parent="1" source="r77UMJ5Ng2X09h00kHRx-84" edge="1">
          <mxGeometry relative="1" as="geometry">
            <mxPoint x="-5267" y="455" as="targetPoint" />
          </mxGeometry>
        </mxCell>
        <mxCell id="r77UMJ5Ng2X09h00kHRx-84" value="거래현황" style="rounded=1;fillColor=#fff2cc;strokeColor=#d6b656;shadow=1;fontStyle=1;fontSize=14;" parent="1" vertex="1">
          <mxGeometry x="-5340" y="380" width="145" height="30" as="geometry" />
        </mxCell>
        <mxCell id="r77UMJ5Ng2X09h00kHRx-96" value="" style="edgeStyle=orthogonalEdgeStyle;rounded=0;orthogonalLoop=1;jettySize=auto;html=1;endArrow=block;endFill=1;" parent="1" source="r77UMJ5Ng2X09h00kHRx-88" target="r77UMJ5Ng2X09h00kHRx-95" edge="1">
          <mxGeometry relative="1" as="geometry" />
        </mxCell>
        <mxCell id="r77UMJ5Ng2X09h00kHRx-88" value="거래 중 리스트" style="rounded=1;shadow=1;fontStyle=1;fontSize=14;" parent="1" vertex="1">
          <mxGeometry x="-5327.5" y="455" width="120" height="40" as="geometry" />
        </mxCell>
        <mxCell id="r77UMJ5Ng2X09h00kHRx-95" value="거래정보" style="rounded=1;shadow=1;fontStyle=1;fontSize=14;" parent="1" vertex="1">
          <mxGeometry x="-5327.5" y="525" width="120" height="40" as="geometry" />
        </mxCell>
        <mxCell id="r77UMJ5Ng2X09h00kHRx-100" value="시세" style="rounded=1;fillColor=#fff2cc;strokeColor=#d6b656;shadow=1;fontStyle=1;fontSize=14;" parent="1" vertex="1">
          <mxGeometry x="-4529" y="230" width="145" height="30" as="geometry" />
        </mxCell>
        <mxCell id="0oCUdtGo1PBGN7tIJ16Z-33" value="" style="edgeStyle=none;rounded=0;orthogonalLoop=1;jettySize=auto;html=1;dashed=1;strokeWidth=1;endArrow=none;endFill=0;entryX=0.5;entryY=0;entryDx=0;entryDy=0;" parent="1" target="eFe6NXDTMwuamUTCRNsm-140" edge="1">
          <mxGeometry relative="1" as="geometry">
            <mxPoint x="-2020" y="525" as="targetPoint" />
            <mxPoint x="-1880" y="200" as="sourcePoint" />
            <Array as="points">
              <mxPoint x="-2090" y="200" />
            </Array>
          </mxGeometry>
        </mxCell>
        <mxCell id="S4lFC_iXdScCC2ixvs9K-33" value="Text" style="text;html=1;strokeColor=none;fillColor=none;align=center;verticalAlign=middle;whiteSpace=wrap;rounded=0;" vertex="1" parent="1">
          <mxGeometry x="-1840" y="510" width="60" height="30" as="geometry" />
        </mxCell>
        <mxCell id="S4lFC_iXdScCC2ixvs9K-34" value="Text" style="text;html=1;strokeColor=none;fillColor=none;align=center;verticalAlign=middle;whiteSpace=wrap;rounded=0;" vertex="1" parent="1">
          <mxGeometry x="-1840" y="510" width="60" height="30" as="geometry" />
        </mxCell>
        <mxCell id="S4lFC_iXdScCC2ixvs9K-35" value="Text" style="text;html=1;strokeColor=none;fillColor=none;align=center;verticalAlign=middle;whiteSpace=wrap;rounded=0;" vertex="1" parent="1">
          <mxGeometry x="-1840" y="510" width="60" height="30" as="geometry" />
        </mxCell>
        <mxCell id="S4lFC_iXdScCC2ixvs9K-36" value="Text" style="text;html=1;strokeColor=none;fillColor=none;align=center;verticalAlign=middle;whiteSpace=wrap;rounded=0;" vertex="1" parent="1">
          <mxGeometry x="-1840" y="510" width="60" height="30" as="geometry" />
        </mxCell>
        <mxCell id="S4lFC_iXdScCC2ixvs9K-37" value="Text" style="text;html=1;strokeColor=none;fillColor=none;align=center;verticalAlign=middle;whiteSpace=wrap;rounded=0;" vertex="1" parent="1">
          <mxGeometry x="-1840" y="510" width="60" height="30" as="geometry" />
        </mxCell>
      </root>
    </mxGraphModel>
  </diagram>
</mxfile>
